<svg width="1669" height="1212" viewBox="0 0 1669 1212" fill="none" xmlns="http://www.w3.org/2000/svg">
<path d="M909 1187V105L1062 106.5C1128.46 118.653 1162.04 134.035 1215 177.5C1300.33 250.324 1343.15 270.969 1412.5 279.5H1667.5V1124C1663.95 1171.76 1650.29 1183.78 1611.5 1187H909Z" fill="#D30A40" stroke="black" stroke-width="3"/>
<path d="M924 159.5L929 1163L1613 1164.5C1636.21 1158.34 1644.22 1150.02 1647 1124V326C1645.73 316.143 1642.04 313.125 1631 311.5H1414.5C1348.48 300.921 1318.06 289.004 1274 258.5C1165.55 169.065 1126.6 145.432 1093.5 141.5H942.5C930.757 141.658 927.558 146.894 924 159.5Z" stroke="black" stroke-width="3"/>
<path d="M923.5 161L928.5 145.5L940.5 142L1084.5 140.56L1090.5 140.5C1093.36 140.668 1096.52 141.124 1100 141.914C1103.9 142.8 1108.22 144.107 1113 145.902C1116.86 147.352 1121.02 149.121 1125.5 151.245C1129.85 153.307 1134.51 155.703 1139.5 158.466C1143.46 160.658 1147.62 163.08 1152 165.749C1179.1 182.261 1214.54 208.225 1261 247.5C1278.94 261.184 1294.75 272.173 1310.5 280.968C1313.66 282.735 1316.82 284.413 1320 286.007C1323.8 287.917 1327.63 289.705 1331.5 291.379C1334.3 292.591 1337.13 293.743 1340 294.839C1343.28 296.092 1346.61 297.27 1350 298.377C1353.27 299.444 1356.6 300.446 1360 301.384C1363.94 302.47 1367.97 303.473 1372.13 304.397C1388.43 308.021 1406.6 310.445 1428 312H1618.5H1632C1637.93 312.93 1641.35 314.439 1643.71 317.5C1645.06 319.259 1646.07 321.531 1647 324.5V333V1126C1643.17 1147.12 1638.62 1154.54 1626 1159.5V367.5V344.5C1625.08 340.398 1623.9 337.564 1622.21 335.5C1619.85 332.623 1616.51 331.24 1611.5 330L1406.5 332C1389.95 331.285 1375.1 329.665 1361.32 327.017C1357.47 326.276 1353.7 325.455 1350 324.55C1347.08 323.837 1344.21 323.073 1341.37 322.255C1338.03 321.293 1334.75 320.257 1331.5 319.146C1328.47 318.109 1325.47 317.006 1322.5 315.835C1318.46 314.243 1314.47 312.526 1310.5 310.679C1306.31 308.731 1302.16 306.639 1298 304.397C1273.29 291.071 1248.64 272.47 1218.5 247.5C1188.39 223.64 1163.02 205.024 1141.5 191.267C1137.18 188.506 1133.02 185.941 1129 183.568C1123.38 180.251 1118.06 177.311 1113 174.738C1109.54 172.98 1106.21 171.394 1103 169.977C1098.62 168.044 1094.45 166.426 1090.5 165.116C1085.71 163.529 1081.22 162.395 1077 161.702C1074.94 161.363 1072.94 161.129 1071 161H923.5Z" fill="#8D072A"/>
<path d="M1632 312H1618.5M1632 312L1622.21 335.5M1632 312C1637.93 312.93 1641.35 314.439 1643.71 317.5M1626 344.5C1625.08 340.398 1623.9 337.564 1622.21 335.5M1626 344.5L1643.71 317.5M1626 344.5V367.5M1611.5 330L1406.5 332C1389.95 331.285 1375.1 329.665 1361.32 327.017M1611.5 330L1618.5 312M1611.5 330C1616.51 331.24 1619.85 332.623 1622.21 335.5M1084.5 140.56L940.5 142L928.5 145.5L923.5 161H1071C1072.94 161.129 1074.94 161.363 1077 161.702M1084.5 140.56L1090.5 140.5C1093.36 140.668 1096.52 141.124 1100 141.914M1084.5 140.56L1077 161.702M1077 161.702C1081.22 162.395 1085.71 163.529 1090.5 165.116M1100 141.914L1090.5 165.116M1100 141.914C1103.91 142.8 1108.22 144.107 1113 145.902M1090.5 165.116C1094.45 166.426 1098.62 168.044 1103 169.977M1113 145.902L1103 169.977M1113 145.902C1116.86 147.352 1121.02 149.121 1125.5 151.245M1103 169.977C1106.21 171.394 1109.54 172.98 1113 174.738M1125.5 151.245L1113 174.738M1125.5 151.245C1129.85 153.307 1134.51 155.703 1139.5 158.466M1113 174.738C1118.06 177.311 1123.38 180.251 1129 183.568M1139.5 158.466L1129 183.568M1139.5 158.466C1143.46 160.658 1147.62 163.08 1152 165.749M1129 183.568C1133.02 185.941 1137.18 188.506 1141.5 191.267M1152 165.749C1179.1 182.261 1214.54 208.225 1261 247.5C1278.94 261.184 1294.75 272.173 1310.5 280.968M1152 165.749L1141.5 191.267M1141.5 191.267C1163.02 205.024 1188.39 223.64 1218.5 247.5C1248.64 272.47 1273.29 291.071 1298 304.397M1310.5 280.968L1298 304.397M1310.5 280.968C1313.66 282.735 1316.82 284.413 1320 286.007M1298 304.397C1302.16 306.639 1306.31 308.731 1310.5 310.679M1320 286.007L1310.5 310.679M1320 286.007C1323.8 287.917 1327.63 289.705 1331.5 291.379M1310.5 310.679C1314.47 312.526 1318.46 314.243 1322.5 315.835M1331.5 291.379L1322.5 315.835M1331.5 291.379C1334.3 292.591 1337.13 293.743 1340 294.839M1322.5 315.835C1325.47 317.006 1328.47 318.109 1331.5 319.146M1340 294.839L1331.5 319.146M1340 294.839C1343.28 296.092 1346.61 297.27 1350 298.377M1331.5 319.146C1334.75 320.257 1338.03 321.293 1341.37 322.255M1350 298.377L1341.37 322.255M1350 298.377C1353.27 299.444 1356.6 300.446 1360 301.384M1341.37 322.255C1344.21 323.073 1347.08 323.837 1350 324.55M1360 301.384L1350 324.55M1360 301.384C1363.94 302.47 1367.97 303.473 1372.13 304.397M1350 324.55C1353.7 325.455 1357.47 326.276 1361.32 327.017M1372.13 304.397C1388.43 308.021 1406.6 310.445 1428 312H1618.5M1372.13 304.397L1361.32 327.017M1643.71 317.5C1645.06 319.259 1646.07 321.531 1647 324.5V333M1647 333V1126C1643.17 1147.12 1638.62 1154.54 1626 1159.5V367.5M1647 333L1626 367.5" stroke="black" stroke-width="3"/>
<path d="M1003 580.2V412.5C1002.36 406.287 1011.54 397.965 1023.5 398H1525.16C1526.38 398 1527.59 398.213 1528.71 398.687C1537.8 402.517 1543.37 408.026 1543.5 416.5V578.998C1543.5 579.994 1543.36 580.99 1543.04 581.932C1540.27 589.995 1536.64 592.434 1528 593.5H1016.43C1014.24 593.5 1012.15 592.603 1010.64 591.017L1004.93 585.028C1003.69 583.726 1003 581.997 1003 580.2Z" fill="#084035" stroke="black" stroke-width="3"/>
<path d="M1003 710.672V652.5C1005.36 642.594 1009.4 639.362 1020 636.5H1119.5H1226.5H1334H1441.5H1539.53C1539.83 636.5 1540.11 636.632 1540.3 636.86L1544.77 642.222C1544.92 642.402 1545 642.628 1545 642.862V713V783.609C1545 783.86 1544.91 784.103 1544.73 784.287L1539.3 790.178C1539.11 790.383 1538.84 790.5 1538.56 790.5H1530.5V793.503C1530.5 794.054 1530.05 794.501 1529.5 794.503L1441.5 794.758L1334 795.07L1226.5 795.382L1119.5 795.692L1013.5 796C1008.77 795.916 1006.43 794.299 1003.69 788.521C1003.22 787.528 1003 786.432 1003 785.333V720.765C1003 720.263 1003.13 719.769 1003.37 719.328L1006 714.5L1003.59 712.086C1003.21 711.711 1003 711.202 1003 710.672Z" fill="#22C4E9"/>
<path d="M1006 714.5L1003.59 712.086C1003.21 711.711 1003 711.202 1003 710.672V652.5C1005.36 642.594 1009.4 639.362 1020 636.5H1119.5M1006 714.5L1003.37 719.328C1003.13 719.769 1003 720.263 1003 720.765V785.333C1003 786.432 1003.22 787.528 1003.69 788.521C1006.43 794.299 1008.77 795.916 1013.5 796L1119.5 795.692M1006 714.5H1010.5L1013.5 713H1545M1545 713V783.609C1545 783.86 1544.91 784.103 1544.73 784.287L1539.3 790.178C1539.11 790.383 1538.84 790.5 1538.56 790.5H1530.5V793.503C1530.5 794.054 1530.05 794.501 1529.5 794.503L1441.5 794.758M1545 713V642.862C1545 642.628 1544.92 642.402 1544.77 642.222L1540.3 636.86C1540.11 636.632 1539.83 636.5 1539.53 636.5H1441.5M1441.5 794.758V636.5M1441.5 794.758L1334 795.07M1441.5 636.5H1334M1334 636.5V795.07M1334 636.5H1226.5M1334 795.07L1226.5 795.382M1226.5 795.382V636.5M1226.5 795.382L1119.5 795.692M1226.5 636.5H1119.5M1119.5 636.5V795.692" stroke="black" stroke-width="3"/>
<path d="M1012 783C1012.28 787.123 1013.41 788.591 1018 789L1529 788.501C1529.55 788.5 1530 788.948 1530 789.501V793.503C1530 794.054 1529.55 794.501 1529 794.503L1011.58 796C1011.53 796 1011.48 795.996 1011.43 795.989C1008.35 795.496 1004.9 792.752 1002.56 786.162C1002.52 786.056 1002.5 785.943 1002.5 785.83V720.315C1002.5 720.11 1002.56 719.91 1002.68 719.742L1006 715L1002.75 711.283C1002.59 711.1 1002.5 710.866 1002.5 710.624V651.5C1004.9 645.299 1007 642.808 1012 640V783Z" fill="#2A85D0" stroke="black" stroke-width="3"/>
<path d="M1351.5 838.5C1339.55 837.04 1338.53 825.051 1351.5 820.5H1426.5C1433.5 820.5 1438.5 834 1426.5 838.5H1351.5Z" fill="#342D30" stroke="black" stroke-width="2"/>
<path d="M1455.85 839C1443.9 837.54 1442.88 825.551 1455.85 821H1530.85C1537.85 821 1542.85 834.5 1530.85 839H1455.85Z" fill="#342D30" stroke="black" stroke-width="2"/>
<path d="M1003 936.5V876C1003 875.448 1003.45 875 1004 875H1009.5V871.414C1009.5 871.149 1009.61 870.895 1009.79 870.707L1016.21 864.293C1016.39 864.105 1016.65 864 1016.91 864H1119H1120.25H1223.54C1223.83 864 1224.11 864.128 1224.3 864.349L1229.76 870.719C1229.91 870.9 1230 871.131 1230 871.37V934.688C1230 934.891 1229.94 935.09 1229.82 935.257L1225.5 941.5V946.765C1225.5 947.202 1225.22 947.589 1224.8 947.719L1217.65 949.954C1217.55 949.985 1217.45 950 1217.35 950L1119 949.759L1013.5 949.5C1006.3 947.137 1003.74 943.415 1003 936.5Z" fill="#D9D9D9"/>
<path d="M1119 864H1120.25H1223.54C1223.83 864 1224.11 864.128 1224.3 864.349L1229.76 870.719C1229.91 870.9 1230 871.131 1230 871.37V934.688C1230 934.891 1229.94 935.09 1229.82 935.257L1225.5 941.5V946.765C1225.5 947.202 1225.22 947.589 1224.8 947.719L1217.65 949.954C1217.55 949.985 1217.45 950 1217.35 950L1119 949.759M1119 864H1016.91C1016.65 864 1016.39 864.105 1016.21 864.293L1009.79 870.707C1009.61 870.895 1009.5 871.149 1009.5 871.414V875H1004C1003.45 875 1003 875.448 1003 876V936.5C1003.74 943.415 1006.3 947.137 1013.5 949.5L1119 949.759M1119 864V941V949.759" stroke="black" stroke-width="2"/>
<path d="M1009 935.164V875H1004C1003.45 875 1003 875.448 1003 876V935.652C1003.9 944.127 1006.55 947.061 1014 950H1217C1219.35 950 1221.71 949.557 1224.89 948.255C1225.26 948.104 1225.5 947.741 1225.5 947.341V941L1016.85 941.499C1016.62 941.5 1016.4 941.425 1016.23 941.288L1009.39 935.952C1009.14 935.763 1009 935.472 1009 935.164Z" fill="#685F60" stroke="black" stroke-width="2"/>
<path d="M1011 1022C1007 1023.44 1005.18 1025.05 1003 1030L1003.5 1096.5C1005.37 1101.42 1007.06 1103.73 1013.5 1105.5H1241.5C1247.43 1103.55 1249.21 1101.2 1250.5 1095.5V1030.5C1249.74 1026.35 1248.21 1024.48 1243.5 1022H1011Z" fill="#084035" stroke="black" stroke-width="2"/>
<path d="M1306.5 1022C1302.5 1023.44 1300.68 1025.05 1298.5 1030L1299 1096.5C1300.87 1101.42 1302.56 1103.73 1309 1105.5H1537C1542.93 1103.55 1544.71 1101.2 1546 1095.5V1030.5C1545.24 1026.35 1543.71 1024.48 1539 1022H1306.5Z" fill="#084035" stroke="black" stroke-width="2"/>
<circle cx="1513.5" cy="925" r="31.25" fill="url(#paint0_radial_1_2)" stroke="black" stroke-width="1.5"/>
<path fill-rule="evenodd" clip-rule="evenodd" d="M1490.22 920.592C1488.35 923.636 1488.34 937.877 1497.5 950.5C1505.45 957.429 1524.5 957.657 1535 946.5C1543.82 937.127 1545 926.5 1543 916.5C1541.28 912.028 1540.08 910.111 1537.64 906.219L1537.5 906C1527.27 900.535 1521.77 899.486 1511 901.5L1510.8 902.383C1515.94 904.763 1519.5 909.966 1519.5 916C1519.5 924.284 1512.78 931 1504.5 931C1497.82 931 1492.16 926.63 1490.22 920.592Z" fill="url(#paint1_linear_1_2)"/>
<path d="M906.5 23.5V107L909.5 1187.5C892 1206.5 878.443 1211.62 828 1209C823.714 1208.79 817.718 1209.31 813 1209L84.5 1207.09L70.5 1207.05L57 1207.02L51 1207C47.9823 1206.13 45.1566 1205.21 42.5 1204.19C39.3305 1202.97 36.4016 1201.6 33.6738 1200C29.9607 1197.83 26.6204 1195.23 23.5538 1192C20.0167 1188.28 16.8437 1183.72 13.8829 1178C9.45003 1169.44 5.49256 1158.3 1.5 1143.5V65.5C15.5408 25.3344 31.1208 10.4844 76.5 1.5H884.5C902.3 3.99271 906.145 9.45357 906.5 23.5Z" fill="#8D072A"/>
<path d="M909.5 1187.5L906.5 107V23.5C906.145 9.45357 902.3 3.99271 884.5 1.5H76.5C31.1208 10.4844 15.5408 25.3344 1.5 65.5V1143.5C5.49256 1158.3 9.45003 1169.44 13.8829 1178M909.5 1187.5C892 1206.5 878.443 1211.62 828 1209M909.5 1187.5C899 1168.5 826.5 1160 795.5 1186.5C796.815 1197.54 809.864 1206.18 828 1209M13.8829 1178L36 1133.5M13.8829 1178C16.8437 1183.72 20.0167 1188.28 23.5538 1192M23.5538 1192L41 1154.5M23.5538 1192C26.6204 1195.23 29.9607 1197.83 33.6738 1200M33.6738 1200L49.5 1169M33.6738 1200C36.4016 1201.6 39.3305 1202.97 42.5 1204.19M42.5 1204.19C45.1566 1205.21 47.9823 1206.13 51 1207L57 1207.02M42.5 1204.19L58.5 1178M57 1207.02L68.5 1183.5M57 1207.02L70.5 1207.05M70.5 1207.05L80.5 1186.5M70.5 1207.05L84.5 1207.09M84.5 1207.09L813 1209C817.718 1209.31 823.714 1208.79 828 1209M84.5 1207.09L96 1186.5" stroke="black" stroke-width="3"/>
<path d="M49.5 50C60.7379 14.9751 74.2106 6.63871 106 4L885 3C901.273 3.46748 906.42 8.31486 909.5 24V1186.5C890.5 1168 820 1163.5 796 1186.5H78C50.4958 1179.55 41.6988 1167.07 35.5 1132.5V238.5C36.893 228.205 39.7323 224.673 49.5 223.5V50Z" fill="#D30A40" stroke="black" stroke-width="3"/>
<g filter="url(#filter0_f_1_2)">
<path d="M835.5 1168L833 56.5L824 58.5L822.5 1169.5L835.5 1168Z" fill="#D83662"/>
<path d="M815.5 62V1173M843.5 1168.54V55.5M833 56.5L835.5 1168L822.5 1169.5L824 58.5L833 56.5Z" stroke="#D83662" stroke-width="3"/>
</g>
<path d="M795.726 1118.5L795.726 1188.5C815.726 1164.5 872 1165 908.5 1186V1123.5M795.726 1118.5L795.814 1090M795.726 1118.5C827.711 1104.73 849.342 1101.43 873.5 1108.28M908.5 1123.5V1093.5M908.5 1123.5C901.775 1119.82 895.495 1116.68 889.5 1114.08M795.814 1090L798.69 165.5M795.814 1090C815.866 1077.98 848.573 1074.21 876 1079.85M908.5 1093.5V172M908.5 1093.5C903.883 1089.97 898.462 1087.04 892.5 1084.68M798.69 165.5L798.773 139M798.69 165.5C825.051 155.736 852.284 153.173 874 156.731M908.5 172V143M908.5 172C903.948 167.448 897.81 163.765 890.5 161.02M798.773 139L799 65.9999C823.961 47.5331 887 46 908.5 68.9999V143M798.773 139C817.601 126.684 849.652 122.561 876.5 128.402M908.5 143C904.063 139.232 898.806 136.11 893 133.607M876.5 128.402L874 156.731M876.5 128.402C882.305 129.665 887.867 131.394 893 133.607M874 156.731C879.96 157.707 885.504 159.145 890.5 161.02M893 133.607L890.5 161.02M876 1079.85L873.5 1108.28M876 1079.85C881.792 1081.04 887.348 1082.64 892.5 1084.68M873.5 1108.28C878.675 1109.75 883.966 1111.69 889.5 1114.08M892.5 1084.68L889.5 1114.08" stroke="black" stroke-width="3"/>
<path d="M36.5 235C38.5439 227.294 42.0517 225.072 51 223.5L245.5 224.655L260.5 224.745L275.5 224.834L289.5 224.917L303.5 225L315.5 223L327.5 221C363.125 210.283 383.529 200.874 421 175.5L511 108.5C519.597 102.1 527.451 96.5787 535 91.713C541.293 87.6573 547.374 84.0568 553.5 80.7817C559.226 77.7205 564.99 74.9435 571 72.3449C575.653 70.333 580.454 68.4279 585.5 66.5805C589.954 64.9497 594.599 63.3638 599.5 61.789C604.981 60.0279 610.783 58.2807 617 56.5L821 56C814 58 803.5 61.5 799 66.5V83.5H604.5C599.817 85.5817 595.327 87.6153 591 89.6207C584.677 92.5511 578.703 95.4214 572.984 98.2941C568.16 100.717 563.517 103.142 559 105.606C553.865 108.407 548.893 111.258 544 114.216C537.422 118.192 530.989 122.359 524.5 126.852C509.459 137.265 494.122 149.425 476 165C414.58 216.786 369.748 241.479 315.5 251.942C311.068 252.797 306.572 253.557 302 254.228C297.899 254.831 293.735 255.363 289.5 255.829C284.922 256.333 280.26 256.76 275.5 257.117C270.607 257.483 265.612 257.775 260.5 258H246.25H232H36.5V235Z" fill="#8D072A"/>
<path d="M260.5 258H246.25M260.5 258L275.5 224.834M260.5 258C265.612 257.775 270.607 257.483 275.5 257.117M604.5 83.5H799V66.5C803.5 61.5 814 58 821 56L617 56.5M604.5 83.5C599.817 85.5817 595.327 87.6153 591 89.6207M604.5 83.5L617 56.5M617 56.5C610.783 58.2807 604.981 60.0279 599.5 61.789M327.5 221C363.125 210.283 383.529 200.874 421 175.5L511 108.5C519.597 102.1 527.451 96.5787 535 91.713M327.5 221L315.5 223M327.5 221L315.5 251.942M303.5 225L289.5 224.917M303.5 225L289.5 255.829M303.5 225L315.5 223M245.5 224.655L51 223.5C42.0517 225.072 38.5439 227.294 36.5 235V258H232M245.5 224.655L232 258M245.5 224.655L260.5 224.745M232 258H246.25M260.5 224.745L246.25 258M260.5 224.745L275.5 224.834M275.5 224.834L289.5 224.917M289.5 224.917L275.5 257.117M275.5 257.117C280.26 256.76 284.922 256.333 289.5 255.829M289.5 255.829C293.735 255.363 297.899 254.831 302 254.228M315.5 223L302 254.228M302 254.228C306.572 253.557 311.068 252.797 315.5 251.942M315.5 251.942C369.748 241.479 414.58 216.786 476 165C494.122 149.425 509.459 137.265 524.5 126.852M535 91.713L524.5 126.852M535 91.713C541.293 87.6573 547.374 84.0568 553.5 80.7817M524.5 126.852C530.989 122.359 537.422 118.192 544 114.216M553.5 80.7817L544 114.216M553.5 80.7817C559.226 77.7205 564.989 74.9435 571 72.3449M544 114.216C548.893 111.258 553.865 108.407 559 105.606M571 72.3449L559 105.606M571 72.3449C575.653 70.333 580.454 68.4279 585.5 66.5805M559 105.606C563.517 103.142 568.16 100.717 572.984 98.2941M585.5 66.5805L572.984 98.2941M585.5 66.5805C589.954 64.9497 594.599 63.3638 599.5 61.789M572.984 98.2941C578.703 95.4214 584.677 92.5511 591 89.6207M599.5 61.789L591 89.6207" stroke="black" stroke-width="3"/>
<path d="M68.5 256.5C61.6675 264.449 60.6481 270.577 60.5 282.5V1118.5C60.5001 1150.5 71.0002 1164.5 94 1164.5H774L776.995 98.7619C776.998 97.6217 776.612 96.5146 775.899 95.6243L767 84.5" stroke="black" stroke-width="3"/>
<path d="M88 309V743L188 841.5H720C733.024 835.763 737.441 830.005 740.5 815.5V314C737.079 300.577 732.804 292.223 719.5 290.5H108C96.6903 292.525 92.1399 296.317 88 309Z" fill="#E1E1E1" stroke="black" stroke-width="3"/>
<path d="M88.226 306.224L97 295.5L88 299C81.3918 304.443 78.8088 310.947 75 325V747L181.5 853.5H712C720.628 849.193 725.23 845.822 732.5 836L714.5 841.5H186L88 743.5V306.857C88 306.626 88.0799 306.402 88.226 306.224Z" fill="#747376" stroke="black" stroke-width="3"/>
<circle cx="231" cy="784.5" r="31.5" fill="#D30A40" stroke="black" stroke-width="2"/>
<circle cx="380.5" cy="329" r="9.5" fill="#E0003E" stroke="black"/>
<circle cx="448.5" cy="329" r="9.5" fill="#E0003E" stroke="black"/>
<path d="M504 756H659.5" stroke="black" stroke-width="4" stroke-linecap="round"/>
<path d="M503.5 776H659" stroke="black" stroke-width="4" stroke-linecap="round"/>
<path d="M503.5 816H659" stroke="black" stroke-width="4" stroke-linecap="round"/>
<path d="M504 794.5C502.895 794.5 502 795.395 502 796.5C502 797.605 502.895 798.5 504 798.5V794.5ZM504 798.5H659.5V794.5H504V798.5Z" fill="black"/>
<path d="M199.5 1009.5C199.5 1003 203.5 998.5 212 998L458 999C470 999 471.5 1003.5 471.5 1013V1111.5C471.5 1122.5 468 1124.5 457 1124.5H216C208.251 1124.84 199.5 1120.5 199.5 1110.5V1009.5Z" fill="#5FC480" stroke="black" stroke-width="3"/>
<circle cx="141.5" cy="909" r="51" fill="#040203"/>
<g filter="url(#filter1_f_1_2)">
<circle cx="145" cy="904.5" r="43.5" fill="#2C2C2C"/>
</g>
<g filter="url(#filter2_d_1_2)">
<path d="M632 992.5L621 1001L619 1062.5C620.249 1066.48 621.086 1068.59 625.5 1069.5H666.088L671.5 1065V1001L655 992.5H632Z" fill="#313131"/>
</g>
<path d="M660 1079.5C666.29 1074.36 668.955 1071.22 671.5 1065L666.276 1069.27C666.098 1069.42 665.874 1069.5 665.643 1069.5H625C621.493 1068.34 620.046 1066.74 618.5 1062L620.5 1001.5L605 1021.5V1076C605.632 1077.95 606.208 1078.93 609.5 1079.5H660Z" fill="#0E0E0E"/>
<path d="M671.5 1002.5V1065M671.5 1065C668.955 1071.22 666.29 1074.36 660 1079.5H609.5C606.208 1078.93 605.632 1077.95 605 1076V1021.5L620.5 1001.5L618.5 1062C620.046 1066.74 621.493 1068.34 625 1069.5H665.643C665.874 1069.5 666.098 1069.42 666.276 1069.27L671.5 1065Z" stroke="black"/>
<path d="M632 992.5L621.5 1001L556.5 1005C551.998 1001.76 550.904 1000.15 551 996V956.5L556 951.5L621 954.5L632 968.5V992.5Z" fill="#313131"/>
<path d="M544.027 957.726L556 951.5L551 956V998.5C552.07 1002.54 553.79 1003.9 558.5 1005L620 1000.5L604.5 1021L598 1017.5H549C544.9 1016.11 543.724 1014.64 542.5 1011.5L543.489 958.594C543.496 958.228 543.702 957.895 544.027 957.726Z" fill="#0E0E0E"/>
<path d="M621.5 954.5L556 951.5M556 951.5L544.027 957.726C543.702 957.895 543.496 958.228 543.489 958.594L542.5 1011.5C543.724 1014.64 544.9 1016.11 549 1017.5H598L604.5 1021L620 1000.5L558.5 1005C553.79 1003.9 552.07 1002.54 551 998.5V956L556 951.5Z" stroke="black"/>
<path d="M671 1002.5L655.5 992.5L654.5 966.5L672 955.5L732.5 952.5C736.767 953.455 738.081 954.979 739 959V998.5C736.105 1002.88 733.682 1003.98 728.5 1004.5C706.978 1003.73 695.308 1002.68 675 1000L671 1002.5Z" fill="#313131"/>
<path d="M676 1000.5C673.745 1000.34 672.749 1000.86 671.5 1003V1017C673.153 1014.58 674.416 1013.74 677.5 1013.5L725 1013C733.131 1012.58 735.888 1007.74 738.5 999.5C736.783 1002.58 734.672 1003 728 1004.5C706.167 1003.31 694.798 1002.82 676 1000.5Z" fill="#0E0E0E"/>
<path d="M738.5 999.5C736.783 1002.58 734.672 1003 728 1004.5C706.167 1003.31 694.798 1002.82 676 1000.5C673.745 1000.34 672.749 1000.86 671.5 1003V1017C673.153 1014.58 674.416 1013.74 677.5 1013.5L725 1013C733.131 1012.58 735.888 1007.74 738.5 999.5ZM738.5 999.5L739 957.5L736 952.5L673 955" stroke="black"/>
<path d="M619.5 955L631.5 968.5L655 966.5L673.5 956.5C670.945 954.24 670.729 953.069 670.5 949.5L672 891.5C670.823 887.78 669.421 886.571 666 885.5H625C621.014 886.375 619.84 887.488 619.5 890.5L621.5 954L619.5 955Z" fill="#313131"/>
<path d="M621.5 954.5L604.5 953.5L607 950.5L606.5 897.5L619 890L621.5 954.5Z" fill="#0E0E0E"/>
<path d="M619 890L621.5 954.5L604.5 953.5L607 950.5L606.5 897.5L619 890ZM619 890C620.344 887.888 621.351 886.921 623.5 885.5H666.5C670.394 886.144 672.032 888.706 672 892L670.5 951C670.461 954.469 671.449 955.108 673.5 955" stroke="black"/>
<circle cx="644" cy="979.5" r="16.5" fill="#2A2A2A" stroke="black" stroke-width="2"/>
<path d="M242.344 917C227.205 915.134 225.912 899.816 242.344 894H337.326C346.191 894 352.523 911.25 337.326 917H242.344Z" fill="#CC0420" stroke="black" stroke-width="2"/>
<path d="M401.344 917C386.205 915.134 384.912 899.816 401.344 894H496.326C505.191 894 511.523 911.25 496.326 917H401.344Z" fill="#0B7082" stroke="black" stroke-width="2"/>
<circle cx="348.5" cy="46" r="23.25" fill="url(#paint2_radial_1_2)" stroke="black" stroke-width="1.5"/>
<path fill-rule="evenodd" clip-rule="evenodd" d="M331.037 42.694C329.638 44.9773 329.631 55.658 336.5 65.125C342.465 70.3215 356.75 70.493 364.625 62.125C371.241 55.0953 372.125 47.125 370.625 39.625C369.332 36.2707 368.432 34.8333 366.603 31.9144L366.5 31.75C358.831 27.651 354.699 26.8644 346.625 28.375L346.474 29.0371C350.327 30.8225 353 34.7242 353 39.25C353 45.4632 347.963 50.5 341.75 50.5C336.738 50.5 332.492 47.2226 331.037 42.694Z" fill="url(#paint3_linear_1_2)" fill-opacity="0.67"/>
<circle cx="419.5" cy="46" r="23.25" fill="url(#paint4_radial_1_2)" stroke="black" stroke-width="1.5"/>
<path fill-rule="evenodd" clip-rule="evenodd" d="M402.037 42.694C400.638 44.9773 400.631 55.658 407.5 65.125C413.465 70.3215 427.75 70.493 435.625 62.125C442.241 55.0953 443.125 47.125 441.625 39.625C440.332 36.2707 439.432 34.8333 437.603 31.9144L437.5 31.75C429.831 27.651 425.699 26.8644 417.625 28.375L417.474 29.0371C421.327 30.8225 424 34.7242 424 39.25C424 45.4632 418.963 50.5 412.75 50.5C407.738 50.5 403.492 47.2226 402.037 42.694Z" fill="url(#paint5_linear_1_2)" fill-opacity="0.67"/>
<circle cx="277.5" cy="46" r="23.25" fill="url(#paint6_radial_1_2)" stroke="black" stroke-width="1.5"/>
<path fill-rule="evenodd" clip-rule="evenodd" d="M260.037 42.694C258.638 44.9773 258.631 55.658 265.5 65.125C271.465 70.3215 285.75 70.493 293.625 62.125C300.241 55.0953 301.125 47.125 299.625 39.625C298.332 36.2707 297.432 34.8333 295.603 31.9144L295.5 31.75C287.831 27.651 283.699 26.8644 275.625 28.375L275.474 29.0371C279.327 30.8225 282 34.7242 282 39.25C282 45.4632 276.963 50.5 270.75 50.5C265.738 50.5 261.492 47.2226 260.037 42.694Z" fill="url(#paint7_linear_1_2)" fill-opacity="0.34"/>
<circle cx="159.5" cy="108" r="90" fill="#F9FBF8" stroke="black" stroke-width="2"/>
<circle cx="163.5" cy="100" r="72" fill="url(#paint8_radial_1_2)" stroke="black" stroke-width="2"/>
<g filter="url(#filter3_f_1_2)">
<path fill-rule="evenodd" clip-rule="evenodd" d="M152 118C175.472 118 194.5 98.9722 194.5 75.5C194.5 62.3418 188.52 50.5801 179.13 42.7844C207.453 49.5926 228.5 75.0884 228.5 105.5C228.5 141.122 199.622 170 164 170C128.378 170 99.5 141.122 99.5 105.5C99.5 92.6157 103.278 80.6137 109.786 70.5413C109.597 72.168 109.5 73.8227 109.5 75.5C109.5 98.9722 128.528 118 152 118Z" fill="#00F3FF"/>
<path fill-rule="evenodd" clip-rule="evenodd" d="M152 118C175.472 118 194.5 98.9722 194.5 75.5C194.5 62.3418 188.52 50.5801 179.13 42.7844C207.453 49.5926 228.5 75.0884 228.5 105.5C228.5 141.122 199.622 170 164 170C128.378 170 99.5 141.122 99.5 105.5C99.5 92.6157 103.278 80.6137 109.786 70.5413C109.597 72.168 109.5 73.8227 109.5 75.5C109.5 98.9722 128.528 118 152 118Z" fill="#0EBDD2"/>
</g>
<defs>
<filter id="filter0_f_1_2" x="810" y="50.631" width="39" height="1126.37" filterUnits="userSpaceOnUse" color-interpolation-filters="sRGB">
<feFlood flood-opacity="0" result="BackgroundImageFix"/>
<feBlend mode="normal" in="SourceGraphic" in2="BackgroundImageFix" result="shape"/>
<feGaussianBlur stdDeviation="2" result="effect1_foregroundBlur_1_2"/>
</filter>
<filter id="filter1_f_1_2" x="99.5" y="859" width="91" height="91" filterUnits="userSpaceOnUse" color-interpolation-filters="sRGB">
<feFlood flood-opacity="0" result="BackgroundImageFix"/>
<feBlend mode="normal" in="SourceGraphic" in2="BackgroundImageFix" result="shape"/>
<feGaussianBlur stdDeviation="1" result="effect1_foregroundBlur_1_2"/>
</filter>
<filter id="filter2_d_1_2" x="615" y="992.5" width="60.5" height="85" filterUnits="userSpaceOnUse" color-interpolation-filters="sRGB">
<feFlood flood-opacity="0" result="BackgroundImageFix"/>
<feColorMatrix in="SourceAlpha" type="matrix" values="0 0 0 0 0 0 0 0 0 0 0 0 0 0 0 0 0 0 127 0" result="hardAlpha"/>
<feOffset dy="4"/>
<feGaussianBlur stdDeviation="2"/>
<feComposite in2="hardAlpha" operator="out"/>
<feColorMatrix type="matrix" values="0 0 0 0 0 0 0 0 0 0 0 0 0 0 0 0 0 0 0.25 0"/>
<feBlend mode="normal" in2="BackgroundImageFix" result="effect1_dropShadow_1_2"/>
<feBlend mode="normal" in="SourceGraphic" in2="effect1_dropShadow_1_2" result="shape"/>
</filter>
<filter id="filter3_f_1_2" x="95.5" y="38.7844" width="137" height="135.216" filterUnits="userSpaceOnUse" color-interpolation-filters="sRGB">
<feFlood flood-opacity="0" result="BackgroundImageFix"/>
<feBlend mode="normal" in="SourceGraphic" in2="BackgroundImageFix" result="shape"/>
<feGaussianBlur stdDeviation="2" result="effect1_foregroundBlur_1_2"/>
</filter>
<radialGradient id="paint0_radial_1_2" cx="0" cy="0" r="1" gradientUnits="userSpaceOnUse" gradientTransform="translate(1502.5 912) rotate(43.6678) scale(15.2069)">
<stop stop-color="#CCC8B1"/>
<stop offset="0.723028" stop-color="#C0B664"/>
</radialGradient>
<linearGradient id="paint1_linear_1_2" x1="1516.5" y1="925.5" x2="1494.5" y2="904" gradientUnits="userSpaceOnUse">
<stop offset="0.250886" stop-color="#8F8546"/>
<stop offset="0.942307" stop-color="#8F8546" stop-opacity="0"/>
</linearGradient>
<radialGradient id="paint2_radial_1_2" cx="0" cy="0" r="1" gradientUnits="userSpaceOnUse" gradientTransform="translate(340.25 36.25) rotate(43.6678) scale(11.4052)">
<stop stop-color="#CED54B"/>
<stop offset="0.723028" stop-color="#E7F15E"/>
</radialGradient>
<linearGradient id="paint3_linear_1_2" x1="350.75" y1="46.375" x2="334.25" y2="30.25" gradientUnits="userSpaceOnUse">
<stop offset="0.250886" stop-color="#8E9736"/>
<stop offset="0.942307" stop-color="#8F8546" stop-opacity="0"/>
</linearGradient>
<radialGradient id="paint4_radial_1_2" cx="0" cy="0" r="1" gradientUnits="userSpaceOnUse" gradientTransform="translate(411.25 36.25) rotate(43.6678) scale(11.4052)">
<stop stop-color="#B1E94D"/>
<stop offset="0.723028" stop-color="#9AFE5C"/>
</radialGradient>
<linearGradient id="paint5_linear_1_2" x1="421.75" y1="46.375" x2="405.25" y2="30.25" gradientUnits="userSpaceOnUse">
<stop offset="0.250886" stop-color="#6AAA38"/>
<stop offset="0.890625" stop-color="#AFED4C"/>
<stop offset="0.942307" stop-color="#8F8546" stop-opacity="0"/>
</linearGradient>
<radialGradient id="paint6_radial_1_2" cx="0" cy="0" r="1" gradientUnits="userSpaceOnUse" gradientTransform="translate(269.25 36.25) rotate(43.6678) scale(11.4052)">
<stop stop-color="#DB494D"/>
<stop offset="0.723028" stop-color="#E9011C"/>
</radialGradient>
<linearGradient id="paint7_linear_1_2" x1="279.75" y1="46.375" x2="263.25" y2="30.25" gradientUnits="userSpaceOnUse">
<stop offset="0.250886" stop-color="#A90311"/>
<stop offset="0.890625" stop-color="#E9031D"/>
</linearGradient>
<radialGradient id="paint8_radial_1_2" cx="0" cy="0" r="1" gradientUnits="userSpaceOnUse" gradientTransform="translate(156 67) rotate(78.5412) scale(37.7525)">
<stop offset="0.269033" stop-color="#D2FDFF"/>
<stop offset="1" stop-color="#0FEBF7"/>
</radialGradient>
</defs>
</svg>
