<svg width="1670" height="1255" viewBox="0 0 1670 1255" fill="none" xmlns="http://www.w3.org/2000/svg">
<path d="M909.5 1230.5V148.5L1062.5 150C1128.96 162.153 1162.54 177.535 1215.5 221C1300.83 293.824 1343.65 314.469 1413 323H1668V1167.5C1664.45 1215.26 1650.79 1227.28 1612 1230.5H909.5Z" fill="#D30A40" stroke="black" stroke-width="3"/>
<path d="M924.5 203L929.5 1206.5L1613.5 1208C1636.71 1201.84 1644.72 1193.52 1647.5 1167.5V369.5C1646.23 359.643 1642.54 356.625 1631.5 355H1415C1348.98 344.421 1318.56 332.504 1274.5 302C1166.05 212.565 1127.1 188.932 1094 185H943C931.257 185.158 928.058 190.394 924.5 203Z" stroke="black" stroke-width="3"/>
<path d="M924 204.5L929 189L941 185.5L1085 184.06L1091 184C1093.86 184.168 1097.02 184.624 1100.5 185.414C1104.4 186.3 1108.72 187.607 1113.5 189.402C1117.36 190.852 1121.52 192.621 1126 194.745C1130.35 196.807 1135.01 199.203 1140 201.966C1143.96 204.158 1148.12 206.58 1152.5 209.249C1179.6 225.761 1215.04 251.725 1261.5 291C1279.44 304.684 1295.25 315.673 1311 324.468C1314.16 326.235 1317.32 327.913 1320.5 329.507C1324.3 331.417 1328.13 333.205 1332 334.879C1334.8 336.091 1337.63 337.243 1340.5 338.339C1343.78 339.592 1347.11 340.77 1350.5 341.877C1353.77 342.944 1357.1 343.946 1360.5 344.884C1364.44 345.97 1368.47 346.973 1372.63 347.897C1388.93 351.521 1407.1 353.945 1428.5 355.5H1619H1632.5C1638.43 356.43 1641.85 357.939 1644.21 361C1645.56 362.759 1646.57 365.031 1647.5 368V376.5V1169.5C1643.67 1190.62 1639.12 1198.04 1626.5 1203V411V388C1625.58 383.898 1624.4 381.064 1622.71 379C1620.35 376.123 1617.01 374.74 1612 373.5L1407 375.5C1390.45 374.785 1375.6 373.165 1361.82 370.517C1357.97 369.776 1354.2 368.955 1350.5 368.05C1347.58 367.337 1344.71 366.573 1341.87 365.755C1338.53 364.793 1335.25 363.757 1332 362.646C1328.97 361.609 1325.97 360.506 1323 359.335C1318.96 357.743 1314.97 356.026 1311 354.179C1306.81 352.231 1302.66 350.139 1298.5 347.897C1273.79 334.571 1249.14 315.97 1219 291C1188.89 267.14 1163.52 248.524 1142 234.767C1137.68 232.006 1133.52 229.441 1129.5 227.068C1123.88 223.751 1118.56 220.811 1113.5 218.238C1110.04 216.48 1106.71 214.894 1103.5 213.477C1099.12 211.544 1094.95 209.926 1091 208.616C1086.21 207.029 1081.72 205.895 1077.5 205.202C1075.44 204.863 1073.44 204.629 1071.5 204.5H924Z" fill="#8D072A"/>
<path d="M1632.5 355.5H1619M1632.5 355.5L1622.71 379M1632.5 355.5C1638.43 356.43 1641.85 357.939 1644.21 361M1626.5 388C1625.58 383.898 1624.4 381.064 1622.71 379M1626.5 388L1644.21 361M1626.5 388V411M1612 373.5L1407 375.5C1390.45 374.785 1375.6 373.165 1361.82 370.517M1612 373.5L1619 355.5M1612 373.5C1617.01 374.74 1620.35 376.123 1622.71 379M1085 184.06L941 185.5L929 189L924 204.5H1071.5C1073.44 204.629 1075.44 204.863 1077.5 205.202M1085 184.06L1091 184C1093.86 184.168 1097.02 184.624 1100.5 185.414M1085 184.06L1077.5 205.202M1077.5 205.202C1081.72 205.895 1086.21 207.029 1091 208.616M1100.5 185.414L1091 208.616M1100.5 185.414C1104.41 186.3 1108.72 187.607 1113.5 189.402M1091 208.616C1094.95 209.926 1099.12 211.544 1103.5 213.477M1113.5 189.402L1103.5 213.477M1113.5 189.402C1117.36 190.852 1121.52 192.621 1126 194.745M1103.5 213.477C1106.71 214.894 1110.04 216.48 1113.5 218.238M1126 194.745L1113.5 218.238M1126 194.745C1130.35 196.807 1135.01 199.203 1140 201.966M1113.5 218.238C1118.56 220.811 1123.88 223.751 1129.5 227.068M1140 201.966L1129.5 227.068M1140 201.966C1143.96 204.158 1148.12 206.58 1152.5 209.249M1129.5 227.068C1133.52 229.441 1137.68 232.006 1142 234.767M1152.5 209.249C1179.6 225.761 1215.04 251.725 1261.5 291C1279.44 304.684 1295.25 315.673 1311 324.468M1152.5 209.249L1142 234.767M1142 234.767C1163.52 248.524 1188.89 267.14 1219 291C1249.14 315.97 1273.79 334.571 1298.5 347.897M1311 324.468L1298.5 347.897M1311 324.468C1314.16 326.235 1317.32 327.913 1320.5 329.507M1298.5 347.897C1302.66 350.139 1306.81 352.231 1311 354.179M1320.5 329.507L1311 354.179M1320.5 329.507C1324.3 331.417 1328.13 333.205 1332 334.879M1311 354.179C1314.97 356.026 1318.96 357.743 1323 359.335M1332 334.879L1323 359.335M1332 334.879C1334.8 336.091 1337.63 337.243 1340.5 338.339M1323 359.335C1325.97 360.506 1328.97 361.609 1332 362.646M1340.5 338.339L1332 362.646M1340.5 338.339C1343.78 339.592 1347.11 340.77 1350.5 341.877M1332 362.646C1335.25 363.757 1338.53 364.793 1341.87 365.755M1350.5 341.877L1341.87 365.755M1350.5 341.877C1353.77 342.944 1357.1 343.946 1360.5 344.884M1341.87 365.755C1344.71 366.573 1347.58 367.337 1350.5 368.05M1360.5 344.884L1350.5 368.05M1360.5 344.884C1364.44 345.97 1368.47 346.973 1372.63 347.897M1350.5 368.05C1354.2 368.955 1357.97 369.776 1361.82 370.517M1372.63 347.897C1388.93 351.521 1407.1 353.945 1428.5 355.5H1619M1372.63 347.897L1361.82 370.517M1644.21 361C1645.56 362.759 1646.57 365.031 1647.5 368V376.5M1647.5 376.5V1169.5C1643.67 1190.62 1639.12 1198.04 1626.5 1203V411M1647.5 376.5L1626.5 411" stroke="black" stroke-width="3"/>
<path d="M1003.5 623.7V456C1002.86 449.787 1012.04 441.465 1024 441.5H1525.66C1526.88 441.5 1528.09 441.713 1529.21 442.187C1538.3 446.017 1543.87 451.526 1544 460V622.498C1544 623.494 1543.86 624.49 1543.54 625.432C1540.77 633.495 1537.14 635.934 1528.5 637H1016.93C1014.74 637 1012.65 636.103 1011.14 634.517L1005.43 628.528C1004.19 627.226 1003.5 625.497 1003.5 623.7Z" fill="#084035" stroke="black" stroke-width="3"/>
<path d="M1003.5 754.172V696C1005.86 686.094 1009.9 682.862 1020.5 680H1120H1227H1334.5H1442H1540.03C1540.33 680 1540.61 680.132 1540.8 680.36L1545.27 685.722C1545.42 685.902 1545.5 686.128 1545.5 686.362V756.5V827.109C1545.5 827.36 1545.41 827.603 1545.23 827.787L1539.8 833.678C1539.61 833.883 1539.34 834 1539.06 834H1531V837.003C1531 837.554 1530.55 838.001 1530 838.003L1442 838.258L1334.5 838.57L1227 838.882L1120 839.192L1014 839.5C1009.27 839.416 1006.93 837.799 1004.19 832.021C1003.72 831.028 1003.5 829.932 1003.5 828.833V764.265C1003.5 763.763 1003.63 763.269 1003.87 762.828L1006.5 758L1004.09 755.586C1003.71 755.211 1003.5 754.702 1003.5 754.172Z" fill="#22C4E9"/>
<path d="M1006.5 758L1004.09 755.586C1003.71 755.211 1003.5 754.702 1003.5 754.172V696C1005.86 686.094 1009.9 682.862 1020.5 680H1120M1006.5 758L1003.87 762.828C1003.63 763.269 1003.5 763.763 1003.5 764.265V828.833C1003.5 829.932 1003.72 831.028 1004.19 832.021C1006.93 837.799 1009.27 839.416 1014 839.5L1120 839.192M1006.5 758H1011L1014 756.5H1545.5M1545.5 756.5V827.109C1545.5 827.36 1545.41 827.603 1545.23 827.787L1539.8 833.678C1539.61 833.883 1539.34 834 1539.06 834H1531V837.003C1531 837.554 1530.55 838.001 1530 838.003L1442 838.258M1545.5 756.5V686.362C1545.5 686.128 1545.42 685.902 1545.27 685.722L1540.8 680.36C1540.61 680.132 1540.33 680 1540.03 680H1442M1442 838.258V680M1442 838.258L1334.5 838.57M1442 680H1334.5M1334.5 680V838.57M1334.5 680H1227M1334.5 838.57L1227 838.882M1227 838.882V680M1227 838.882L1120 839.192M1227 680H1120M1120 680V839.192" stroke="black" stroke-width="3"/>
<path d="M1012.5 826.5C1012.78 830.623 1013.91 832.091 1018.5 832.5L1529.5 832.001C1530.05 832 1530.5 832.448 1530.5 833.001V837.003C1530.5 837.554 1530.05 838.001 1529.5 838.003L1012.08 839.5C1012.03 839.5 1011.98 839.496 1011.93 839.489C1008.85 838.996 1005.4 836.252 1003.06 829.662C1003.02 829.556 1003 829.443 1003 829.33V763.815C1003 763.61 1003.06 763.41 1003.18 763.242L1006.5 758.5L1003.25 754.783C1003.09 754.6 1003 754.366 1003 754.124V695C1005.4 688.799 1007.5 686.308 1012.5 683.5V826.5Z" fill="#2A85D0" stroke="black" stroke-width="3"/>
<path d="M1352 882C1340.05 880.54 1339.03 868.551 1352 864H1427C1434 864 1439 877.5 1427 882H1352Z" fill="#342D30" stroke="black" stroke-width="2"/>
<path d="M1456.35 882.5C1444.4 881.04 1443.38 869.051 1456.35 864.5H1531.35C1538.35 864.5 1543.35 878 1531.35 882.5H1456.35Z" fill="#342D30" stroke="black" stroke-width="2"/>
<path d="M1003.5 980V919.5C1003.5 918.948 1003.95 918.5 1004.5 918.5H1010V914.914C1010 914.649 1010.11 914.395 1010.29 914.207L1016.71 907.793C1016.89 907.605 1017.15 907.5 1017.41 907.5H1119.5H1120.75H1224.04C1224.33 907.5 1224.61 907.628 1224.8 907.849L1230.26 914.219C1230.41 914.4 1230.5 914.631 1230.5 914.87V978.188C1230.5 978.391 1230.44 978.59 1230.32 978.757L1226 985V990.265C1226 990.702 1225.72 991.089 1225.3 991.219L1218.15 993.454C1218.05 993.485 1217.95 993.5 1217.85 993.5L1119.5 993.259L1014 993C1006.8 990.637 1004.24 986.915 1003.5 980Z" fill="#D9D9D9"/>
<path d="M1119.5 907.5H1120.75H1224.04C1224.33 907.5 1224.61 907.628 1224.8 907.849L1230.26 914.219C1230.41 914.4 1230.5 914.631 1230.5 914.87V978.188C1230.5 978.391 1230.44 978.59 1230.32 978.757L1226 985V990.265C1226 990.702 1225.72 991.089 1225.3 991.219L1218.15 993.454C1218.05 993.485 1217.95 993.5 1217.85 993.5L1119.5 993.259M1119.5 907.5H1017.41C1017.15 907.5 1016.89 907.605 1016.71 907.793L1010.29 914.207C1010.11 914.395 1010 914.649 1010 914.914V918.5H1004.5C1003.95 918.5 1003.5 918.948 1003.5 919.5V980C1004.24 986.915 1006.8 990.637 1014 993L1119.5 993.259M1119.5 907.5V984.5V993.259" stroke="black" stroke-width="2"/>
<path d="M1009.5 978.664V918.5H1004.5C1003.95 918.5 1003.5 918.948 1003.5 919.5V979.152C1004.4 987.627 1007.05 990.561 1014.5 993.5H1217.5C1219.85 993.5 1222.21 993.057 1225.39 991.755C1225.76 991.604 1226 991.241 1226 990.841V984.5L1017.35 984.999C1017.12 985 1016.9 984.925 1016.73 984.788L1009.89 979.452C1009.64 979.263 1009.5 978.972 1009.5 978.664Z" fill="#685F60" stroke="black" stroke-width="2"/>
<path d="M1011.5 1065.5C1007.5 1066.94 1005.68 1068.55 1003.5 1073.5L1004 1140C1005.87 1144.92 1007.56 1147.23 1014 1149H1242C1247.93 1147.05 1249.71 1144.7 1251 1139V1074C1250.24 1069.85 1248.71 1067.98 1244 1065.5H1011.5Z" fill="#084035" stroke="black" stroke-width="2"/>
<path d="M1307 1065.5C1303 1066.94 1301.18 1068.55 1299 1073.5L1299.5 1140C1301.37 1144.92 1303.06 1147.23 1309.5 1149H1537.5C1543.43 1147.05 1545.21 1144.7 1546.5 1139V1074C1545.74 1069.85 1544.21 1067.98 1539.5 1065.5H1307Z" fill="#084035" stroke="black" stroke-width="2"/>
<circle cx="1514" cy="968.5" r="31.25" fill="url(#paint0_radial_1_2)" stroke="black" stroke-width="1.5"/>
<path fill-rule="evenodd" clip-rule="evenodd" d="M1490.72 964.092C1488.85 967.136 1488.84 981.377 1498 994C1505.95 1000.93 1525 1001.16 1535.5 990C1544.32 980.627 1545.5 970 1543.5 960C1541.78 955.528 1540.58 953.611 1538.14 949.719L1538 949.5C1527.77 944.035 1522.27 942.986 1511.5 945L1511.3 945.883C1516.44 948.263 1520 953.466 1520 959.5C1520 967.784 1513.28 974.5 1505 974.5C1498.32 974.5 1492.66 970.13 1490.72 964.092Z" fill="url(#paint1_linear_1_2)"/>
<path d="M907 67V150.5L910 1231C892.5 1250 878.943 1255.12 828.5 1252.5C824.214 1252.29 818.218 1252.81 813.5 1252.5L85 1250.59L71 1250.55L57.5 1250.52L51.5 1250.5C48.4823 1249.63 45.6566 1248.71 43 1247.69C39.8305 1246.47 36.9016 1245.1 34.1738 1243.5C30.4607 1241.33 27.1204 1238.73 24.0538 1235.5C20.5167 1231.78 17.3437 1227.22 14.3829 1221.5C9.95003 1212.94 5.99256 1201.8 2 1187V109C16.0408 68.8344 31.6208 53.9844 77 45H885C902.8 47.4927 906.645 52.9536 907 67Z" fill="#8D072A"/>
<path d="M910 1231L907 150.5V67C906.645 52.9536 902.8 47.4927 885 45H77C31.6208 53.9844 16.0408 68.8344 2 109V1187C5.99256 1201.8 9.95003 1212.94 14.3829 1221.5M910 1231C892.5 1250 878.943 1255.12 828.5 1252.5M910 1231C899.5 1212 827 1203.5 796 1230C797.315 1241.04 810.364 1249.68 828.5 1252.5M14.3829 1221.5L36.5 1177M14.3829 1221.5C17.3437 1227.22 20.5167 1231.78 24.0538 1235.5M24.0538 1235.5L41.5 1198M24.0538 1235.5C27.1204 1238.73 30.4607 1241.33 34.1738 1243.5M34.1738 1243.5L50 1212.5M34.1738 1243.5C36.9016 1245.1 39.8305 1246.47 43 1247.69M43 1247.69C45.6566 1248.71 48.4823 1249.63 51.5 1250.5L57.5 1250.52M43 1247.69L59 1221.5M57.5 1250.52L69 1227M57.5 1250.52L71 1250.55M71 1250.55L81 1230M71 1250.55L85 1250.59M85 1250.59L813.5 1252.5C818.218 1252.81 824.214 1252.29 828.5 1252.5M85 1250.59L96.5 1230" stroke="black" stroke-width="3"/>
<path d="M50 93.5C61.2379 58.4751 74.7106 50.1387 106.5 47.5L885.5 46.5C901.773 46.9675 906.92 51.8149 910 67.5V1230C891 1211.5 820.5 1207 796.5 1230H78.5C50.9958 1223.05 42.1988 1210.57 36 1176V282C37.393 271.705 40.2323 268.173 50 267V93.5Z" fill="#D30A40" stroke="black" stroke-width="3"/>
<g filter="url(#filter0_f_1_2)">
<path d="M836 1211.5L833.5 100L824.5 102L823 1213L836 1211.5Z" fill="#D83662"/>
<path d="M816 105.5V1216.5M844 1212.04V99M833.5 100L836 1211.5L823 1213L824.5 102L833.5 100Z" stroke="#D83662" stroke-width="3"/>
</g>
<path d="M796.226 1162L796.226 1232C816.226 1208 872.5 1208.5 909 1229.5V1167M796.226 1162L796.314 1133.5M796.226 1162C828.211 1148.23 849.842 1144.93 874 1151.78M909 1167V1137M909 1167C902.275 1163.32 895.995 1160.18 890 1157.58M796.314 1133.5L799.19 209M796.314 1133.5C816.366 1121.48 849.073 1117.71 876.5 1123.35M909 1137V215.5M909 1137C904.383 1133.47 898.962 1130.54 893 1128.18M799.19 209L799.273 182.5M799.19 209C825.551 199.236 852.784 196.673 874.5 200.231M909 215.5V186.5M909 215.5C904.448 210.948 898.31 207.265 891 204.52M799.273 182.5L799.5 109.5C824.461 91.0331 887.5 89.5 909 112.5V186.5M799.273 182.5C818.101 170.184 850.152 166.061 877 171.902M909 186.5C904.563 182.732 899.306 179.61 893.5 177.107M877 171.902L874.5 200.231M877 171.902C882.805 173.165 888.367 174.894 893.5 177.107M874.5 200.231C880.46 201.207 886.004 202.645 891 204.52M893.5 177.107L891 204.52M876.5 1123.35L874 1151.78M876.5 1123.35C882.292 1124.54 887.848 1126.14 893 1128.18M874 1151.78C879.175 1153.25 884.466 1155.19 890 1157.58M893 1128.18L890 1157.58" stroke="black" stroke-width="3"/>
<path d="M37 278.5C39.0439 270.794 42.5517 268.572 51.5 267L246 268.155L261 268.245L276 268.334L290 268.417L304 268.5L316 266.5L328 264.5C363.625 253.783 384.029 244.374 421.5 219L511.5 152C520.097 145.6 527.951 140.079 535.5 135.213C541.793 131.157 547.874 127.557 554 124.282C559.726 121.22 565.49 118.444 571.5 115.845C576.153 113.833 580.954 111.928 586 110.081C590.454 108.45 595.099 106.864 600 105.289C605.481 103.528 611.283 101.781 617.5 100L821.5 99.5C814.5 101.5 804 105 799.5 110V127H605C600.317 129.082 595.827 131.115 591.5 133.121C585.177 136.051 579.203 138.921 573.484 141.794C568.66 144.217 564.017 146.642 559.5 149.106C554.365 151.907 549.393 154.758 544.5 157.716C537.922 161.692 531.489 165.859 525 170.352C509.959 180.765 494.622 192.925 476.5 208.5C415.08 260.286 370.248 284.979 316 295.442C311.568 296.297 307.072 297.057 302.5 297.728C298.399 298.331 294.235 298.863 290 299.329C285.422 299.833 280.76 300.26 276 300.617C271.107 300.983 266.112 301.275 261 301.5H246.75H232.5H37V278.5Z" fill="#8D072A"/>
<path d="M261 301.5H246.75M261 301.5L276 268.334M261 301.5C266.112 301.275 271.107 300.983 276 300.617M605 127H799.5V110C804 105 814.5 101.5 821.5 99.5L617.5 100M605 127C600.317 129.082 595.827 131.115 591.5 133.121M605 127L617.5 100M617.5 100C611.283 101.781 605.481 103.528 600 105.289M328 264.5C363.625 253.783 384.029 244.374 421.5 219L511.5 152C520.097 145.6 527.951 140.079 535.5 135.213M328 264.5L316 266.5M328 264.5L316 295.442M304 268.5L290 268.417M304 268.5L290 299.329M304 268.5L316 266.5M246 268.155L51.5 267C42.5517 268.572 39.0439 270.794 37 278.5V301.5H232.5M246 268.155L232.5 301.5M246 268.155L261 268.245M232.5 301.5H246.75M261 268.245L246.75 301.5M261 268.245L276 268.334M276 268.334L290 268.417M290 268.417L276 300.617M276 300.617C280.76 300.26 285.422 299.833 290 299.329M290 299.329C294.235 298.863 298.399 298.331 302.5 297.728M316 266.5L302.5 297.728M302.5 297.728C307.072 297.057 311.568 296.297 316 295.442M316 295.442C370.248 284.979 415.08 260.286 476.5 208.5C494.622 192.925 509.959 180.765 525 170.352M535.5 135.213L525 170.352M535.5 135.213C541.793 131.157 547.874 127.557 554 124.282M525 170.352C531.489 165.859 537.922 161.692 544.5 157.716M554 124.282L544.5 157.716M554 124.282C559.726 121.22 565.489 118.444 571.5 115.845M544.5 157.716C549.393 154.758 554.365 151.907 559.5 149.106M571.5 115.845L559.5 149.106M571.5 115.845C576.153 113.833 580.954 111.928 586 110.081M559.5 149.106C564.017 146.642 568.66 144.217 573.484 141.794M586 110.081L573.484 141.794M586 110.081C590.454 108.45 595.099 106.864 600 105.289M573.484 141.794C579.203 138.921 585.177 136.051 591.5 133.121M600 105.289L591.5 133.121" stroke="black" stroke-width="3"/>
<path d="M69 300C62.1675 307.949 61.1481 314.077 61 326V1162C61.0001 1194 71.5002 1208 94.5 1208H774.5L777.495 142.262C777.498 141.122 777.112 140.015 776.399 139.124L767.5 128" stroke="black" stroke-width="3"/>
<path d="M88.5 352.5V786.5L188.5 885H720.5C733.524 879.263 737.941 873.505 741 859V357.5C737.579 344.077 733.304 335.723 720 334H108.5C97.1903 336.025 92.6399 339.817 88.5 352.5Z" fill="#E1E1E1" stroke="black" stroke-width="3"/>
<path d="M88.726 349.724L97.5 339L88.5 342.5C81.8918 347.943 79.3088 354.447 75.5 368.5V790.5L182 897H712.5C721.128 892.693 725.73 889.322 733 879.5L715 885H186.5L88.5 787V350.357C88.5 350.126 88.5799 349.902 88.726 349.724Z" fill="#747376" stroke="black" stroke-width="3"/>
<circle cx="231.5" cy="828" r="31.5" fill="#D30A40" stroke="black" stroke-width="2"/>
<circle cx="381" cy="372.5" r="9.5" fill="#E0003E" stroke="black"/>
<circle cx="449" cy="372.5" r="9.5" fill="#E0003E" stroke="black"/>
<path d="M504.5 799.5H660" stroke="black" stroke-width="4" stroke-linecap="round"/>
<path d="M504 819.5H659.5" stroke="black" stroke-width="4" stroke-linecap="round"/>
<path d="M504 859.5H659.5" stroke="black" stroke-width="4" stroke-linecap="round"/>
<path d="M504.5 838C503.395 838 502.5 838.895 502.5 840C502.5 841.105 503.395 842 504.5 842V838ZM504.5 842H660V838H504.5V842Z" fill="black"/>
<path d="M200 1053C200 1046.5 204 1042 212.5 1041.5L458.5 1042.5C470.5 1042.5 472 1047 472 1056.5V1155C472 1166 468.5 1168 457.5 1168H216.5C208.751 1168.34 200 1164 200 1154V1053Z" fill="#5FC480" stroke="black" stroke-width="3"/>
<circle cx="142" cy="952.5" r="51" fill="#040203"/>
<g filter="url(#filter1_f_1_2)">
<circle cx="145.5" cy="948" r="43.5" fill="#2C2C2C"/>
</g>
<g filter="url(#filter2_d_1_2)">
<path d="M632.5 1036L621.5 1044.5L619.5 1106C620.749 1109.98 621.586 1112.09 626 1113H666.588L672 1108.5V1044.5L655.5 1036H632.5Z" fill="#313131"/>
</g>
<path d="M660.5 1123C666.79 1117.86 669.455 1114.72 672 1108.5L666.776 1112.77C666.598 1112.92 666.374 1113 666.143 1113H625.5C621.993 1111.84 620.546 1110.24 619 1105.5L621 1045L605.5 1065V1119.5C606.132 1121.45 606.708 1122.43 610 1123H660.5Z" fill="#0E0E0E"/>
<path d="M672 1046V1108.5M672 1108.5C669.455 1114.72 666.79 1117.86 660.5 1123H610C606.708 1122.43 606.132 1121.45 605.5 1119.5V1065L621 1045L619 1105.5C620.546 1110.24 621.993 1111.84 625.5 1113H666.143C666.374 1113 666.598 1112.92 666.776 1112.77L672 1108.5Z" stroke="black"/>
<path d="M632.5 1036L622 1044.5L557 1048.5C552.498 1045.26 551.404 1043.65 551.5 1039.5V1000L556.5 995L621.5 998L632.5 1012V1036Z" fill="#313131"/>
<path d="M544.527 1001.23L556.5 995L551.5 999.5V1042C552.57 1046.04 554.29 1047.4 559 1048.5L620.5 1044L605 1064.5L598.5 1061H549.5C545.4 1059.61 544.224 1058.14 543 1055L543.989 1002.09C543.996 1001.73 544.202 1001.39 544.527 1001.23Z" fill="#0E0E0E"/>
<path d="M622 998L556.5 995M556.5 995L544.527 1001.23C544.202 1001.39 543.996 1001.73 543.989 1002.09L543 1055C544.224 1058.14 545.4 1059.61 549.5 1061H598.5L605 1064.5L620.5 1044L559 1048.5C554.29 1047.4 552.57 1046.04 551.5 1042V999.5L556.5 995Z" stroke="black"/>
<path d="M671.5 1046L656 1036L655 1010L672.5 999L733 996C737.267 996.955 738.581 998.479 739.5 1002.5V1042C736.605 1046.38 734.182 1047.48 729 1048C707.478 1047.23 695.808 1046.18 675.5 1043.5L671.5 1046Z" fill="#313131"/>
<path d="M676.5 1044C674.245 1043.84 673.249 1044.36 672 1046.5V1060.5C673.653 1058.08 674.916 1057.24 678 1057L725.5 1056.5C733.631 1056.08 736.388 1051.24 739 1043C737.283 1046.08 735.172 1046.5 728.5 1048C706.667 1046.81 695.298 1046.32 676.5 1044Z" fill="#0E0E0E"/>
<path d="M739 1043C737.283 1046.08 735.172 1046.5 728.5 1048C706.667 1046.81 695.298 1046.32 676.5 1044C674.245 1043.84 673.249 1044.36 672 1046.5V1060.5C673.653 1058.08 674.916 1057.24 678 1057L725.5 1056.5C733.631 1056.08 736.388 1051.24 739 1043ZM739 1043L739.5 1001L736.5 996L673.5 998.5" stroke="black"/>
<path d="M620 998.5L632 1012L655.5 1010L674 1000C671.445 997.74 671.229 996.569 671 993L672.5 935C671.323 931.28 669.921 930.071 666.5 929H625.5C621.514 929.875 620.34 930.988 620 934L622 997.5L620 998.5Z" fill="#313131"/>
<path d="M622 998L605 997L607.5 994L607 941L619.5 933.5L622 998Z" fill="#0E0E0E"/>
<path d="M619.5 933.5L622 998L605 997L607.5 994L607 941L619.5 933.5ZM619.5 933.5C620.844 931.388 621.851 930.421 624 929H667C670.894 929.644 672.532 932.206 672.5 935.5L671 994.5C670.961 997.969 671.949 998.608 674 998.5" stroke="black"/>
<circle cx="644.5" cy="1023" r="16.5" fill="#2A2A2A" stroke="black" stroke-width="2"/>
<path d="M242.844 960.5C227.705 958.634 226.412 943.316 242.844 937.5H337.826C346.691 937.5 353.023 954.75 337.826 960.5H242.844Z" fill="#CC0420" stroke="black" stroke-width="2"/>
<path d="M401.844 960.5C386.705 958.634 385.412 943.316 401.844 937.5H496.826C505.691 937.5 512.023 954.75 496.826 960.5H401.844Z" fill="#0B7082" stroke="black" stroke-width="2"/>
<circle cx="349" cy="89.5" r="23.25" fill="url(#paint2_radial_1_2)" stroke="black" stroke-width="1.5"/>
<path fill-rule="evenodd" clip-rule="evenodd" d="M331.537 86.194C330.138 88.4773 330.131 99.158 337 108.625C342.965 113.822 357.25 113.993 365.125 105.625C371.741 98.5953 372.625 90.625 371.125 83.125C369.832 79.7707 368.932 78.3333 367.103 75.4144L367 75.25C359.331 71.151 355.199 70.3644 347.125 71.875L346.974 72.5371C350.827 74.3225 353.5 78.2242 353.5 82.75C353.5 88.9632 348.463 94 342.25 94C337.238 94 332.992 90.7226 331.537 86.194Z" fill="url(#paint3_linear_1_2)" fill-opacity="0.67"/>
<circle cx="420" cy="89.5" r="23.25" fill="url(#paint4_radial_1_2)" stroke="black" stroke-width="1.5"/>
<path fill-rule="evenodd" clip-rule="evenodd" d="M402.537 86.194C401.138 88.4773 401.131 99.158 408 108.625C413.965 113.822 428.25 113.993 436.125 105.625C442.741 98.5953 443.625 90.625 442.125 83.125C440.832 79.7707 439.932 78.3333 438.103 75.4144L438 75.25C430.331 71.151 426.199 70.3644 418.125 71.875L417.974 72.5371C421.827 74.3225 424.5 78.2242 424.5 82.75C424.5 88.9632 419.463 94 413.25 94C408.238 94 403.992 90.7226 402.537 86.194Z" fill="url(#paint5_linear_1_2)" fill-opacity="0.67"/>
<circle cx="278" cy="89.5" r="23.25" fill="url(#paint6_radial_1_2)" stroke="black" stroke-width="1.5"/>
<path fill-rule="evenodd" clip-rule="evenodd" d="M260.537 86.194C259.138 88.4773 259.131 99.158 266 108.625C271.965 113.822 286.25 113.993 294.125 105.625C300.741 98.5953 301.625 90.625 300.125 83.125C298.832 79.7707 297.932 78.3333 296.103 75.4144L296 75.25C288.331 71.151 284.199 70.3644 276.125 71.875L275.974 72.5371C279.827 74.3225 282.5 78.2242 282.5 82.75C282.5 88.9632 277.463 94 271.25 94C266.238 94 261.992 90.7226 260.537 86.194Z" fill="url(#paint7_linear_1_2)" fill-opacity="0.34"/>
<circle cx="160" cy="151.5" r="90" fill="#F9FBF8" stroke="black" stroke-width="2"/>
<circle cx="164" cy="143.5" r="72" fill="url(#paint8_radial_1_2)" stroke="black" stroke-width="2"/>
<g filter="url(#filter3_f_1_2)">
<path fill-rule="evenodd" clip-rule="evenodd" d="M152.5 161.5C175.972 161.5 195 142.472 195 119C195 105.842 189.02 94.0801 179.63 86.2844C207.953 93.0926 229 118.588 229 149C229 184.622 200.122 213.5 164.5 213.5C128.878 213.5 100 184.622 100 149C100 136.116 103.778 124.114 110.286 114.041C110.097 115.668 110 117.323 110 119C110 142.472 129.028 161.5 152.5 161.5Z" fill="#00F3FF"/>
<path fill-rule="evenodd" clip-rule="evenodd" d="M152.5 161.5C175.972 161.5 195 142.472 195 119C195 105.842 189.02 94.0801 179.63 86.2844C207.953 93.0926 229 118.588 229 149C229 184.622 200.122 213.5 164.5 213.5C128.878 213.5 100 184.622 100 149C100 136.116 103.778 124.114 110.286 114.041C110.097 115.668 110 117.323 110 119C110 142.472 129.028 161.5 152.5 161.5Z" fill="#0EBDD2"/>
</g>
<g filter="url(#filter4_f_1_2)">
<ellipse cx="160.5" cy="161.5" rx="100.5" ry="101.5" fill="#99F4FF"/>
</g>
<rect x="137.5" y="403.5" width="555" height="353" rx="32.5" fill="#363636" stroke="black" stroke-width="5"/>
<rect x="156" y="421" width="518" height="318" rx="20" fill="black"/>
<defs>
<filter id="filter0_f_1_2" x="810.5" y="94.131" width="39" height="1126.37" filterUnits="userSpaceOnUse" color-interpolation-filters="sRGB">
<feFlood flood-opacity="0" result="BackgroundImageFix"/>
<feBlend mode="normal" in="SourceGraphic" in2="BackgroundImageFix" result="shape"/>
<feGaussianBlur stdDeviation="2" result="effect1_foregroundBlur_1_2"/>
</filter>
<filter id="filter1_f_1_2" x="100" y="902.5" width="91" height="91" filterUnits="userSpaceOnUse" color-interpolation-filters="sRGB">
<feFlood flood-opacity="0" result="BackgroundImageFix"/>
<feBlend mode="normal" in="SourceGraphic" in2="BackgroundImageFix" result="shape"/>
<feGaussianBlur stdDeviation="1" result="effect1_foregroundBlur_1_2"/>
</filter>
<filter id="filter2_d_1_2" x="615.5" y="1036" width="60.5" height="85" filterUnits="userSpaceOnUse" color-interpolation-filters="sRGB">
<feFlood flood-opacity="0" result="BackgroundImageFix"/>
<feColorMatrix in="SourceAlpha" type="matrix" values="0 0 0 0 0 0 0 0 0 0 0 0 0 0 0 0 0 0 127 0" result="hardAlpha"/>
<feOffset dy="4"/>
<feGaussianBlur stdDeviation="2"/>
<feComposite in2="hardAlpha" operator="out"/>
<feColorMatrix type="matrix" values="0 0 0 0 0 0 0 0 0 0 0 0 0 0 0 0 0 0 0.25 0"/>
<feBlend mode="normal" in2="BackgroundImageFix" result="effect1_dropShadow_1_2"/>
<feBlend mode="normal" in="SourceGraphic" in2="effect1_dropShadow_1_2" result="shape"/>
</filter>
<filter id="filter3_f_1_2" x="96" y="82.2844" width="137" height="135.216" filterUnits="userSpaceOnUse" color-interpolation-filters="sRGB">
<feFlood flood-opacity="0" result="BackgroundImageFix"/>
<feBlend mode="normal" in="SourceGraphic" in2="BackgroundImageFix" result="shape"/>
<feGaussianBlur stdDeviation="2" result="effect1_foregroundBlur_1_2"/>
</filter>
<filter id="filter4_f_1_2" x="0" y="0" width="321" height="323" filterUnits="userSpaceOnUse" color-interpolation-filters="sRGB">
<feFlood flood-opacity="0" result="BackgroundImageFix"/>
<feBlend mode="normal" in="SourceGraphic" in2="BackgroundImageFix" result="shape"/>
<feGaussianBlur stdDeviation="30" result="effect1_foregroundBlur_1_2"/>
</filter>
<radialGradient id="paint0_radial_1_2" cx="0" cy="0" r="1" gradientUnits="userSpaceOnUse" gradientTransform="translate(1503 955.5) rotate(43.6678) scale(15.2069)">
<stop stop-color="#CCC8B1"/>
<stop offset="0.723028" stop-color="#C0B664"/>
</radialGradient>
<linearGradient id="paint1_linear_1_2" x1="1517" y1="969" x2="1495" y2="947.5" gradientUnits="userSpaceOnUse">
<stop offset="0.250886" stop-color="#8F8546"/>
<stop offset="0.942307" stop-color="#8F8546" stop-opacity="0"/>
</linearGradient>
<radialGradient id="paint2_radial_1_2" cx="0" cy="0" r="1" gradientUnits="userSpaceOnUse" gradientTransform="translate(340.75 79.75) rotate(43.6678) scale(11.4052)">
<stop stop-color="#CED54B"/>
<stop offset="0.723028" stop-color="#E7F15E"/>
</radialGradient>
<linearGradient id="paint3_linear_1_2" x1="351.25" y1="89.875" x2="334.75" y2="73.75" gradientUnits="userSpaceOnUse">
<stop offset="0.250886" stop-color="#8E9736"/>
<stop offset="0.942307" stop-color="#8F8546" stop-opacity="0"/>
</linearGradient>
<radialGradient id="paint4_radial_1_2" cx="0" cy="0" r="1" gradientUnits="userSpaceOnUse" gradientTransform="translate(411.75 79.75) rotate(43.6678) scale(11.4052)">
<stop stop-color="#B1E94D"/>
<stop offset="0.723028" stop-color="#9AFE5C"/>
</radialGradient>
<linearGradient id="paint5_linear_1_2" x1="422.25" y1="89.875" x2="405.75" y2="73.75" gradientUnits="userSpaceOnUse">
<stop offset="0.250886" stop-color="#6AAA38"/>
<stop offset="0.890625" stop-color="#AFED4C"/>
<stop offset="0.942307" stop-color="#8F8546" stop-opacity="0"/>
</linearGradient>
<radialGradient id="paint6_radial_1_2" cx="0" cy="0" r="1" gradientUnits="userSpaceOnUse" gradientTransform="translate(269.75 79.75) rotate(43.6678) scale(11.4052)">
<stop stop-color="#DB494D"/>
<stop offset="0.723028" stop-color="#E9011C"/>
</radialGradient>
<linearGradient id="paint7_linear_1_2" x1="280.25" y1="89.875" x2="263.75" y2="73.75" gradientUnits="userSpaceOnUse">
<stop offset="0.250886" stop-color="#A90311"/>
<stop offset="0.890625" stop-color="#E9031D"/>
</linearGradient>
<radialGradient id="paint8_radial_1_2" cx="0" cy="0" r="1" gradientUnits="userSpaceOnUse" gradientTransform="translate(156.5 110.5) rotate(78.5412) scale(37.7525)">
<stop offset="0.269033" stop-color="#D2FDFF"/>
<stop offset="1" stop-color="#0FEBF7"/>
</radialGradient>
</defs>
</svg>
